<?xml version="1.0" encoding="utf-8"?>
<!-- Generator: Adobe Illustrator 23.0.1, SVG Export Plug-In . SVG Version: 6.00 Build 0)  -->
<svg version="1.1" id="Layer_1" xmlns="http://www.w3.org/2000/svg" xmlns:xlink="http://www.w3.org/1999/xlink" x="0px" y="0px"
	 viewBox="0 0 750 1334" style="enable-background:new 0 0 750 1334;" xml:space="preserve">
<style type="text/css">
	.st0{fill:#48BBEB;}
</style>
<g>
	<path class="st0" d="M576.2,1022.8c-0.7,2.8-3.5,4.2-8.5,4.2h-94.1c-5.6,0-10.6-2.5-14.8-7.4L303.4,821.9l-43.3,41.2v153.3
		c0,7.1-3.5,10.6-10.6,10.6h-73c-7.1,0-10.6-3.5-10.6-10.6V317.6c0-7,3.5-10.6,10.6-10.6h73c7,0,10.6,3.5,10.6,10.6v430.3
		l186.1-188.2c4.9-4.9,9.9-7.4,14.8-7.4h97.3c4.2,0,7,1.8,8.5,5.3c1.4,4.2,1.1,7.4-1.1,9.5L369,757.4l205.1,254.8
		C576.9,1015,577.6,1018.5,576.2,1022.8L576.2,1022.8z"/>
	<polygon class="st0" points="570.2,544.6 575.7,544.6 575.7,545.6 573.6,545.6 573.6,551.5 572.3,551.5 572.3,545.6 570.2,545.6 
		570.2,544.6 	"/>
	<polygon class="st0" points="576.5,544.6 578.2,544.6 580.1,550 580.1,550 582,544.6 583.7,544.6 583.7,551.5 582.5,551.5 
		582.5,546.2 582.5,546.2 580.6,551.5 579.6,551.5 577.7,546.2 577.7,546.2 577.7,551.5 576.5,551.5 576.5,544.6 	"/>
</g>
</svg>
